<svg fill="#000000" xmlns="http://www.w3.org/2000/svg"  viewBox="0 0 64 64" width="64px" height="64px"><path d="M 13 6 C 9.15 6 6 9.15 6 13 L 6 51 C 6 54.85 9.15 58 13 58 L 51 58 C 54.85 58 58 54.85 58 51 L 58 13 C 58 9.15 54.85 6 51 6 L 13 6 z M 13 8 L 51 8 C 53.77 8 56 10.23 56 13 L 56 51 C 56 53.77 53.77 56 51 56 L 13 56 C 10.23 56 8 53.77 8 51 L 8 13 C 8 10.23 10.23 8 13 8 z M 31.052734 14 C 25.655734 14 21.265625 18.983422 21.265625 25.107422 C 21.265625 31.231422 25.655734 36.212891 31.052734 36.212891 C 34.32192 36.212891 37.215553 34.376755 38.994141 31.574219 L 39 36 C 39 40.81 35.372 43 32 43 C 28.89 43 25.975703 41.354828 25.220703 39.173828 C 25.040703 38.652828 24.471219 38.374688 23.949219 38.554688 C 23.427219 38.734688 23.149078 39.304172 23.330078 39.826172 C 24.367078 42.823172 28.014 45 32 45 C 36.473 45 41 41.907047 41 35.998047 L 40.972656 15.972656 C 40.971656 15.420656 40.524656 14.972656 39.972656 14.972656 C 39.419656 14.973656 38.971656 15.422609 38.972656 15.974609 L 38.976562 18.609375 C 37.196488 15.822375 34.311222 14 31.052734 14 z M 31.052734 16 C 35.347734 16 38.841797 20.084469 38.841797 25.105469 C 38.841797 30.125469 35.346734 34.210938 31.052734 34.210938 C 26.758734 34.210938 23.265625 30.126469 23.265625 25.105469 C 23.265625 20.084469 26.758734 16 31.052734 16 z M 12 48 C 11.448 48 11 48.448 11 49 L 11 51 C 11 51.552 11.448 52 12 52 C 12.552 52 13 51.552 13 51 L 13 49 C 13 48.448 12.552 48 12 48 z M 17 48 C 16.448 48 16 48.448 16 49 L 16 51 C 16 51.552 16.448 52 17 52 C 17.552 52 18 51.552 18 51 L 18 49 C 18 48.448 17.552 48 17 48 z M 22 48 C 21.448 48 21 48.448 21 49 L 21 51 C 21 51.552 21.448 52 22 52 C 22.552 52 23 51.552 23 51 L 23 49 C 23 48.448 22.552 48 22 48 z M 27 48 C 26.448 48 26 48.448 26 49 L 26 51 C 26 51.552 26.448 52 27 52 C 27.552 52 28 51.552 28 51 L 28 49 C 28 48.448 27.552 48 27 48 z M 32 48 C 31.448 48 31 48.448 31 49 L 31 51 C 31 51.552 31.448 52 32 52 C 32.552 52 33 51.552 33 51 L 33 49 C 33 48.448 32.552 48 32 48 z M 37 48 C 36.448 48 36 48.448 36 49 L 36 51 C 36 51.552 36.448 52 37 52 C 37.552 52 38 51.552 38 51 L 38 49 C 38 48.448 37.552 48 37 48 z M 42 48 C 41.448 48 41 48.448 41 49 L 41 51 C 41 51.552 41.448 52 42 52 C 42.552 52 43 51.552 43 51 L 43 49 C 43 48.448 42.552 48 42 48 z M 47 48 C 46.448 48 46 48.448 46 49 L 46 51 C 46 51.552 46.448 52 47 52 C 47.552 52 48 51.552 48 51 L 48 49 C 48 48.448 47.552 48 47 48 z M 52 48 C 51.448 48 51 48.448 51 49 L 51 51 C 51 51.552 51.448 52 52 52 C 52.552 52 53 51.552 53 51 L 53 49 C 53 48.448 52.552 48 52 48 z"/></svg>